<?xml version="1.0" encoding="utf-8"?>
<!-- Generator: Adobe Illustrator 23.0.4, SVG Export Plug-In . SVG Version: 6.00 Build 0)  -->
<svg version="1.1" id="Layer_1" xmlns="http://www.w3.org/2000/svg" xmlns:xlink="http://www.w3.org/1999/xlink" x="0px" y="0px"
	 viewBox="0 0 3000 1000" style="enable-background:new 0 0 3000 1000;" xml:space="preserve">
<style type="text/css">
	.st0{fill:#0058D8;}
	.st1{fill:#1DC5FF;}
	.st2{fill:#7A7A7A;}
	.st3{font-family:'OpenSans-Regular';}
	.st4{font-size:131.4299px;}
</style>
<g>
	<g>
		<path class="st0" d="M147.94,426.6v-0.74c0-75.42,58.05-134.57,136.42-134.57c52.86,0,86.87,22.18,109.8,53.98l-53.98,41.77
			c-14.79-18.48-31.79-30.32-56.56-30.32c-36.23,0-61.74,30.68-61.74,68.4v0.74c0,38.82,25.51,69.13,61.74,69.13
			c26.99,0,42.88-12.57,58.41-31.42l53.98,38.45c-24.4,33.64-57.3,58.42-114.61,58.42C207.46,560.43,147.94,503.87,147.94,426.6z"/>
		<path class="st0" d="M411.14,285.37h70.24v269.88h-70.24V285.37z"/>
		<path class="st0" d="M499.49,456.18v-0.74c0-56.93,46.58-104.62,110.91-104.62c63.96,0,110.17,46.95,110.17,103.88v0.74
			c0,56.93-46.58,104.62-110.9,104.62C545.7,560.06,499.49,513.11,499.49,456.18z M652.17,456.18v-0.74
			c0-24.4-17.74-45.1-42.51-45.1c-25.51,0-41.78,20.33-41.78,44.36v0.74c0,24.4,17.74,45.11,42.52,45.11
			C635.9,500.54,652.17,480.21,652.17,456.18z"/>
		<path class="st0" d="M735.7,486.12V355.25h70.24v108.32c0,21.81,11.46,33.64,28.47,33.64c16.64,0,29.2-11.83,29.2-33.64V355.25
			h70.24v200h-70.24V527.9c-12.94,16.64-31.42,31.79-59.89,31.79C761.21,559.69,735.7,531.59,735.7,486.12z"/>
		<path class="st0" d="M951.22,456.18v-0.74c0-65.06,40.67-104.62,87.99-104.62c30.32,0,48.06,13.68,61.37,28.83v-94.27h70.24
			v269.88h-70.24v-26.62c-13.68,16.64-31.05,31.05-61,31.05C992.25,559.69,951.22,520.13,951.22,456.18z M1101.68,455.43v-0.74
			c0-26.25-18.11-45.1-40.67-45.1s-41.04,18.48-41.04,45.1v0.74c0,26.62,18.48,45.48,41.04,45.48S1101.68,482.05,1101.68,455.43z"/>
	</g>
	<g>
		<g>
			<path class="st1" d="M1409.26,328.17h-146.39v69.4h129.75v42.8h-129.75v72.09h148.24v42.8h-193.34V285.37h191.49V328.17z"/>
			<path class="st1" d="M1628.6,365.51c10.73-6.34,23.48-9.51,38.28-9.51c21.45,0,38.21,6.47,50.3,19.41
				c12.08,12.94,18.12,31.36,18.12,55.27v124.58h-45.1V444.61c0-15.49-3.44-27.29-10.3-35.41c-6.87-8.11-16.56-12.17-29.07-12.17
				c-12.27,0-22.26,4.12-29.99,12.36c-7.73,8.23-11.6,20.22-11.6,35.95v109.91h-45.1V444.24c0-15.24-3.43-26.92-10.3-35.03
				c-6.87-8.11-16.56-12.17-29.08-12.17c-12.51,0-22.57,4.3-30.17,12.91c-7.61,8.6-11.41,20.53-11.41,35.77v109.54h-45.1V360.07
				h45.1v29.88c3.19-4.47,6.64-8.7,10.34-12.68c3.7-3.98,7.94-7.58,12.74-10.82c4.8-3.23,10.22-5.78,16.26-7.65
				c6.03-1.86,12.74-2.8,20.13-2.8c14.04,0,25.93,3.17,35.66,9.51c9.72,6.34,17.17,14.73,22.35,25.18
				C1608.57,380.25,1617.87,371.86,1628.6,365.51z"/>
			<path class="st1" d="M1961.36,500.91c-5.06,12.57-11.83,23.23-20.33,31.98s-18.24,15.34-29.2,19.77
				c-10.97,4.44-22.25,6.65-33.83,6.65c-16.02,0-29.33-3.45-39.92-10.35c-10.6-6.9-19.35-14.91-26.25-24.03l0.37,89.46h-45.1V360.07
				h45.1v32.53c7.13-10.35,15.98-19.04,26.55-26.07c10.57-7.02,23.73-10.54,39.46-10.54c11.56,0,22.74,2.22,33.56,6.65
				c10.82,4.44,20.47,11.03,28.95,19.78c8.48,8.75,15.3,19.4,20.47,31.98c5.16,12.57,7.74,26.99,7.74,43.25
				C1968.94,473.93,1966.4,488.34,1961.36,500.91z M1919.4,431.6c-2.96-7.76-6.97-14.35-12.01-19.78
				c-5.06-5.41-10.97-9.61-17.75-12.57c-6.78-2.96-13.98-4.44-21.62-4.44c-7.64,0-14.91,1.48-21.81,4.44
				c-6.9,2.96-12.93,7.21-18.11,12.75c-5.17,5.55-9.31,12.14-12.38,19.78c-3.09,7.64-4.62,16.27-4.62,25.87
				c0,9.61,1.54,18.24,4.62,25.88c3.07,7.64,7.21,14.23,12.38,19.77c5.18,5.55,11.21,9.8,18.11,12.76
				c6.9,2.96,14.17,4.43,21.81,4.43c7.64,0,14.85-1.48,21.62-4.43c6.78-2.96,12.69-7.14,17.75-12.57
				c5.05-5.41,9.05-12.01,12.01-19.77c2.96-7.77,4.43-16.45,4.43-26.07C1923.83,448.05,1922.36,439.36,1919.4,431.6z"/>
			<path class="st1" d="M1995.18,555.25V285.39h45.1v269.86H1995.18z"/>
			<path class="st1" d="M2265.59,497.22c-5.31,12.32-12.57,23.1-21.81,32.35c-9.24,9.24-20.28,16.57-33.09,21.99
				c-12.81,5.41-26.74,8.13-41.77,8.13c-14.79,0-28.53-2.65-41.22-7.95c-12.7-5.29-23.66-12.57-32.9-21.81
				c-9.24-9.24-16.45-19.96-21.63-32.16c-5.17-12.2-7.76-25.32-7.76-39.37s2.65-27.29,7.95-39.74c5.3-12.44,12.57-23.29,21.82-32.53
				c9.24-9.24,20.2-16.57,32.9-21.99c12.69-5.42,26.55-8.14,41.59-8.14c15.03,0,28.89,2.65,41.59,7.95
				c12.69,5.3,23.65,12.57,32.9,21.81s16.45,20.03,21.62,32.35c5.18,12.33,7.76,25.51,7.76,39.55
				C2273.54,471.71,2270.89,484.89,2265.59,497.22z M2224.03,434c-2.94-7.64-7.04-14.35-12.31-20.15
				c-5.27-5.79-11.52-10.35-18.74-13.68c-7.23-3.33-15.24-4.99-24.05-4.99c-8.82,0-16.84,1.66-24.07,4.99
				c-7.23,3.33-13.41,7.83-18.56,13.49c-5.14,5.67-9.06,12.26-11.75,19.77c-2.69,7.53-4.04,15.59-4.04,24.21
				c0,8.63,1.46,16.82,4.41,24.58c2.94,7.76,7.04,14.48,12.31,20.15c5.27,5.67,11.51,10.17,18.74,13.49s15.13,4.99,23.7,4.99
				c9.05,0,17.2-1.66,24.43-4.99c7.23-3.33,13.41-7.82,18.55-13.49c5.14-5.67,9.07-12.25,11.75-19.78
				c2.69-7.51,4.04-15.58,4.04-24.21S2226.97,441.64,2224.03,434z"/>
			<path class="st1" d="M2389.99,560.8c-3.94,10.1-8.01,18.6-12.2,25.51c-4.19,6.9-8.87,12.5-14.05,16.82
				c-5.17,4.31-10.85,7.45-17,9.42c-6.16,1.97-13.19,2.96-21.07,2.96c-9.37,0-17.69-1.06-24.96-3.17
				c-7.27-2.12-14.36-5.04-21.26-8.77l15.16-33.53c4.19,2.22,8.44,4,12.75,5.36c4.31,1.35,8.81,2.03,13.49,2.03
				c6.41,0,11.71-1.6,15.9-4.79c4.19-3.21,8.13-9.11,11.83-17.72l-81.33-194.85h47.69l55.45,144.91l50.65-144.91h46.58
				L2389.99,560.8z"/>
			<path class="st1" d="M2526.02,510.34c10.1,8.51,22.43,12.76,36.97,12.76c11.09,0,20.7-1.97,28.83-5.92
				c8.13-3.94,16.14-9.73,24.03-17.37l26.24,23.29c-9.36,11.09-20.52,19.96-33.45,26.61c-12.94,6.65-28.41,9.98-46.39,9.98
				c-14.05,0-27.17-2.46-39.37-7.39c-12.2-4.92-22.8-11.83-31.79-20.7c-9-8.87-16.08-19.53-21.26-31.98
				c-5.17-12.44-7.76-26.3-7.76-41.59c0-14.05,2.34-27.22,7.02-39.55c4.68-12.32,11.27-23.1,19.78-32.35
				c8.5-9.24,18.54-16.57,30.12-21.99s24.4-8.14,38.45-8.14c15.53,0,29.14,2.84,40.85,8.51c11.7,5.67,21.44,13.31,29.2,22.92
				c7.76,9.61,13.61,20.83,17.56,33.64c3.94,12.82,5.92,26.24,5.92,40.29c0,1.98-0.06,3.94-0.18,5.92
				c-0.13,1.98-0.31,4.07-0.55,6.29H2506.8C2509.51,489.58,2515.91,501.84,2526.02,510.34z M2606.61,443.98
				c-0.74-7.14-2.34-13.86-4.8-20.14c-2.47-6.29-5.8-11.71-9.98-16.27c-4.19-4.56-9.19-8.19-14.97-10.9
				c-5.8-2.71-12.39-4.07-19.78-4.07c-13.81,0-25.2,4.75-34.2,14.23c-9,9.49-14.48,21.87-16.45,37.15H2606.61z"/>
			<path class="st1" d="M2727.12,510.34c10.1,8.51,22.42,12.76,36.96,12.76c11.09,0,20.7-1.97,28.84-5.92
				c8.13-3.94,16.14-9.73,24.02-17.37l26.25,23.29c-9.37,11.09-20.52,19.96-33.46,26.61c-12.93,6.65-28.41,9.98-46.39,9.98
				c-14.05,0-27.17-2.46-39.37-7.39c-12.2-4.92-22.8-11.83-31.79-20.7c-9-8.87-16.08-19.53-21.26-31.98
				c-5.18-12.44-7.76-26.3-7.76-41.59c0-14.05,2.34-27.22,7.02-39.55c4.68-12.32,11.27-23.1,19.77-32.35
				c8.51-9.24,18.55-16.57,30.13-21.99c11.58-5.42,24.4-8.14,38.45-8.14c15.52,0,29.14,2.84,40.84,8.51
				c11.71,5.67,21.44,13.31,29.21,22.92c7.76,9.61,13.61,20.83,17.56,33.64c3.94,12.82,5.91,26.24,5.91,40.29
				c0,1.98-0.06,3.94-0.18,5.92c-0.13,1.98-0.31,4.07-0.55,6.29h-143.43C2710.6,489.58,2717.01,501.84,2727.12,510.34z
				 M2807.71,443.98c-0.74-7.14-2.35-13.86-4.81-20.14c-2.46-6.29-5.79-11.71-9.98-16.27c-4.2-4.56-9.19-8.19-14.98-10.9
				c-5.79-2.71-12.38-4.07-19.77-4.07c-13.81,0-25.21,4.75-34.2,14.23c-9,9.49-14.48,21.87-16.45,37.15H2807.71z"/>
		</g>
	</g>
</g>
<text transform="matrix(1 0 0 1 659.0881 753.8788)" class="st2 st3 st4">Top Provider of Tech Talent</text>
</svg>
