<?xml version="1.0" encoding="utf-8"?>
<!-- Generator: Adobe Illustrator 23.0.4, SVG Export Plug-In . SVG Version: 6.00 Build 0)  -->
<svg version="1.1" id="Capa_1" xmlns="http://www.w3.org/2000/svg" xmlns:xlink="http://www.w3.org/1999/xlink" x="0px" y="0px"
	 viewBox="0 0 512 512" style="enable-background:new 0 0 512 512;" xml:space="preserve">
<style type="text/css">
	.st0{fill:#0058D8;}
</style>
<path class="st0" d="M501.3,74.8c-7.7-7.7-18-12-28.8-12H213.2c-6.2,0-12.1-2.4-16.5-6.8l-13.3-13.3c-7.7-7.7-18-12-28.9-12h-115
	l0,0c-10.9,0-21.1,4.2-28.8,12c-7.7,7.7-12,18-12,28.8v368.7c0,22.5,18.3,40.8,40.8,40.8h432.9c22.5,0,40.8-18.3,40.8-40.8V103.7
	C513.2,92.8,509,82.6,501.3,74.8z M464.4,103c-4.8,0-8.8,3.9-8.8,8.8s3.9,8.8,8.8,8.8h8c12.9,0,23.3,10.5,23.3,23.3v296.6
	c0,12.9-10.5,23.3-23.3,23.3H39.6c-6.2,0-12.1-2.4-16.5-6.8s-6.8-10.3-6.8-16.5V143.8c0-12.9,10.5-23.3,23.3-23.3h392.8
	c4.8,0,8.8-3.9,8.8-8.8s-3.9-8.8-8.8-8.8H39.6c-8.4,0-16.5,2.5-23.3,7.3V71.6c0-12.9,10.5-23.3,23.3-23.3h115
	c6.2,0,12.1,2.4,16.5,6.8l13.3,13.3c7.7,7.7,18,12,28.9,12h259.3c12.9,0,23.3,10.5,23.3,23.3v6.6c-6.9-4.8-14.9-7.3-23.3-7.3
	C472.6,103,464.4,103,464.4,103z"/>
<g>
	<g>
		<g>
			<path class="st0" d="M327.6,257.4v-33.5c0-39.5-32.1-71.6-71.6-71.6s-71.6,32.1-71.6,71.6v33.5c-13.8,3.4-24,15.8-24,30.6
				c0,4.1,3.4,7.5,7.5,7.5s7.5-3.4,7.5-7.5c0-9.1,7.4-16.5,16.5-16.5h128.3c9.1,0,16.5,7.4,16.5,16.5v48.1
				c0,44.5-36.2,80.7-80.7,80.7s-80.7-36.2-80.7-80.7v-16c0-4.1-3.4-7.5-7.5-7.5s-7.5,3.4-7.5,7.5v16c0,52.8,42.9,95.7,95.7,95.7
				s95.7-42.9,95.7-95.7V288C351.7,273.3,341.4,260.8,327.6,257.4z M231.4,256.5v-32.6c0-13.5,11-24.6,24.6-24.6
				c13.5,0,24.6,11,24.6,24.6v32.6H231.4z M312.6,256.5h-17.1v-32.6c0-21.8-17.7-39.6-39.6-39.6s-39.6,17.7-39.6,39.6v32.6h-17.1
				v-32.6c0-31.2,25.4-56.6,56.6-56.6s56.6,25.4,56.6,56.6v32.6H312.6z"/>
			<path class="st0" d="M256,433.1c-53.4,0-96.9-43.5-96.9-96.9v-16c0-4.8,3.9-8.8,8.8-8.8s8.8,3.9,8.8,8.8v16
				c0,43.8,35.6,79.4,79.4,79.4s79.4-35.6,79.4-79.4v-48.1c0-8.4-6.9-15.3-15.3-15.3H191.9c-8.4,0-15.3,6.9-15.3,15.3
				c0,4.8-3.9,8.8-8.8,8.8s-8.8-3.9-8.8-8.8c0-14.8,9.8-27.7,24-31.6V224c0-40.2,32.7-72.9,72.9-72.9s72.9,32.7,72.9,72.9v32.5
				c14.2,3.9,24,16.8,24,31.6v48.1C352.9,389.6,309.4,433.1,256,433.1z M167.8,313.9c-3.4,0-6.2,2.8-6.2,6.2v16
				c0,52.1,42.4,94.4,94.4,94.4c52.1,0,94.4-42.4,94.4-94.4V288c0-14-9.5-26.1-23.1-29.4l-1-0.2v-34.5c0-38.8-31.6-70.4-70.4-70.4
				s-70.4,31.6-70.4,70.4v34.5l-1,0.2c-13.6,3.3-23.1,15.4-23.1,29.4c0,3.4,2.8,6.2,6.2,6.2s6.2-2.8,6.2-6.2c0-9.8,8-17.8,17.8-17.8
				h128.3c9.8,0,17.8,8,17.8,17.8v48.1c0,45.2-36.8,81.9-81.9,81.9s-81.9-36.8-81.9-81.9v-16C174.1,316.7,171.3,313.9,167.8,313.9z
				 M313.9,257.8h-19.6V224c0-21.1-17.2-38.3-38.3-38.3s-38.3,17.2-38.3,38.3v33.8h-19.6V224c0-15.4,6-30,17-40.9
				c10.9-10.9,25.5-17,40.9-17c31.9,0,57.9,26,57.9,57.9L313.9,257.8L313.9,257.8z M296.8,255.3h14.6V224
				c0-30.5-24.8-55.4-55.4-55.4c-14.8,0-28.7,5.8-39.1,16.2c-10.5,10.5-16.2,24.4-16.2,39.1v31.3h14.6v-31.3
				c0-22.5,18.3-40.8,40.8-40.8s40.8,18.3,40.8,40.8v31.4H296.8z M281.8,257.8h-51.6V224c0-14.2,11.6-25.8,25.8-25.8
				s25.8,11.6,25.8,25.8V257.8z M232.7,255.3h46.6V224c0-12.9-10.5-23.3-23.3-23.3s-23.3,10.5-23.3,23.3L232.7,255.3L232.7,255.3z"
				/>
		</g>
	</g>
</g>
<g>
	<g>
		<g>
			<path class="st0" d="M256,304.6c-13,0-23.5,10.6-23.5,23.5c0,10.4,6.7,19.2,16,22.3v17.8c0,4.1,3.4,7.5,7.5,7.5s7.5-3.4,7.5-7.5
				v-17.8c9.3-3.1,16-11.9,16-22.3C279.5,315.2,269,304.6,256,304.6z M256,336.7c-4.7,0-8.5-3.8-8.5-8.5s3.8-8.5,8.5-8.5
				c4.7,0,8.5,3.8,8.5,8.5C264.5,332.8,260.7,336.7,256,336.7z"/>
			<path class="st0" d="M256,377c-4.8,0-8.8-3.9-8.8-8.8v-16.9c-9.6-3.6-16-12.8-16-23.2c0-13.7,11.1-24.8,24.8-24.8
				c13.7,0,24.8,11.1,24.8,24.8c0,10.3-6.4,19.5-16,23.2v16.9C264.8,373.1,260.8,377,256,377z M256,305.9c-12.3,0-22.3,10-22.3,22.3
				c0,9.6,6.1,18.1,15.2,21.1l0.9,0.3v18.7c0,3.4,2.8,6.2,6.2,6.2c3.4,0,6.2-2.8,6.2-6.2v-18.7l0.9-0.3c9.1-3.1,15.2-11.5,15.2-21.1
				C278.3,315.9,268.3,305.9,256,305.9z M256,337.9c-5.4,0-9.8-4.4-9.8-9.8s4.4-9.8,9.8-9.8c5.4,0,9.8,4.4,9.8,9.8
				S261.4,337.9,256,337.9z M256,320.9c-4,0-7.3,3.3-7.3,7.3s3.3,7.3,7.3,7.3s7.3-3.3,7.3-7.3S260,320.9,256,320.9z"/>
		</g>
	</g>
</g>
</svg>
