<?xml version="1.0" encoding="utf-8"?>
<!-- Generator: Adobe Illustrator 23.0.4, SVG Export Plug-In . SVG Version: 6.00 Build 0)  -->
<svg version="1.1" id="Layer_1" xmlns="http://www.w3.org/2000/svg" xmlns:xlink="http://www.w3.org/1999/xlink" x="0px" y="0px"
	 viewBox="0 0 512 512" style="enable-background:new 0 0 512 512;" xml:space="preserve">
<style type="text/css">
	.st0{fill:#0058D8;}
</style>
<path class="st0" d="M281.7,130.1H24.6C11,130.1,0,141.1,0,154.7V186c0,4.1,3.4,7.5,7.5,7.5s7.5-3.4,7.5-7.5v-31.3
	c0-5.3,4.3-9.6,9.6-9.6h257.1c5.3,0,9.6,4.3,9.6,9.6v142.1H15V181c0-4.1-3.4-7.5-7.5-7.5S0,176.9,0,181v144.1c0,6.7,2.7,12.7,7,17.2
	c0.1,0.1,0.1,0.1,0.2,0.2s0.1,0.1,0.2,0.2c4.4,4.3,10.5,7,17.2,7h89.2V381H85.2c-8.4,0-15.2,6.8-15.2,15.2v13
	c0,8.4,6.8,15.2,15.2,15.2h131.7c8.4,0,15.2-6.8,15.2-15.2v-13c0-8.4-6.8-15.2-15.2-15.2h-31.2v-31.3h96c6.7,0,12.7-2.7,17.2-7
	c0.1-0.1,0.1-0.1,0.2-0.2s0.1-0.1,0.2-0.2c4.3-4.4,7-10.5,7-17.2V154.7C306.2,141.1,295.2,130.1,281.7,130.1z M217.1,396.1v13
	c0,0.1-0.1,0.2-0.2,0.2H85.2c-0.1,0-0.2-0.1-0.2-0.2v-13c0-0.1,0.1-0.2,0.2-0.2h92.9h0.1h0.1h38.6C217,395.9,217.1,396,217.1,396.1z
	 M170.7,380.9h-41.9v-31.3h41.9L170.7,380.9L170.7,380.9z M24.6,334.6c-2.6,0-4.9-1-6.6-2.7l-0.1-0.1l-0.1-0.1
	c-1.7-1.7-2.7-4-2.7-6.6v-13.3h276.2V325c0,2.6-1,4.9-2.7,6.6l-0.1,0.1l-0.1,0.1c-1.7,1.7-4.1,2.7-6.6,2.7L24.6,334.6L24.6,334.6z"
	/>
<path class="st0" d="M475.4,88H362.2c-20.2,0-36.6,16.4-36.6,36.6v260.5c0,20.2,16.4,36.6,36.6,36.6h39.1c4.1,0,7.5-3.4,7.5-7.5
	s-3.4-7.5-7.5-7.5h-39.1c-11.9,0-21.6-9.7-21.6-21.6V124.6c0-11.9,9.7-21.6,21.6-21.6h113.2c11.9,0,21.6,9.7,21.6,21.6v260.5
	c0,11.9-9.7,21.6-21.6,21.6h-79.1c-4.1,0-7.5,3.4-7.5,7.5s3.4,7.5,7.5,7.5h79.1c20.2,0,36.6-16.4,36.6-36.6V124.6
	C512,104.4,495.6,88,475.4,88z"/>
<path class="st0" d="M461.1,169.9c-12.5,0-22.7,10.2-22.7,22.6c0,12.5,10.2,22.6,22.7,22.6s22.6-10.1,22.6-22.6
	C483.8,180.1,473.6,169.9,461.1,169.9z M461.1,200.2c-4.2,0-7.7-3.4-7.7-7.6s3.4-7.6,7.7-7.6c4.2,0,7.6,3.4,7.6,7.6
	S465.3,200.2,461.1,200.2z"/>
<path class="st0" d="M461.1,222.9c-12.5,0-22.7,10.2-22.7,22.6c0,12.5,10.2,22.6,22.7,22.6s22.6-10.2,22.6-22.6
	C483.8,233,473.6,222.9,461.1,222.9z M461.1,253.1c-4.2,0-7.7-3.4-7.7-7.6s3.4-7.6,7.7-7.6c4.2,0,7.6,3.4,7.6,7.6
	S465.3,253.1,461.1,253.1z"/>
<path class="st0" d="M484.5,131.6c0-8-6.5-14.4-14.4-14.4H367.5c-8,0-14.4,6.5-14.4,14.4v15.2c0,8,6.5,14.4,14.4,14.4h102.6
	c8,0,14.4-6.5,14.4-14.4V131.6z M469.5,146.3H368v-14.1h101.5V146.3z"/>
</svg>
