<?xml version="1.0" encoding="utf-8"?>
<!-- Generator: Adobe Illustrator 23.0.4, SVG Export Plug-In . SVG Version: 6.00 Build 0)  -->
<svg version="1.1" id="Layer_1" xmlns="http://www.w3.org/2000/svg" xmlns:xlink="http://www.w3.org/1999/xlink" x="0px" y="0px"
	 viewBox="0 0 496 496" style="enable-background:new 0 0 496 496;" xml:space="preserve">
<style type="text/css">
	.st0{fill:#0058D8;}
</style>
<path class="st0" d="M472,16h-73.5C395.2,6.7,386.4,0,376,0H264c-10.4,0-19.2,6.7-22.5,16H168c-13.2,0-24,10.8-24,24v104h-27.2
	c-9.7,0-19.3,2.6-27.8,7.4L45.9,176H0v144h53.6l33.9,22.6c9.2,6.2,20,9.4,31.1,9.4H144v120c0,13.2,10.8,24,24,24h304
	c13.2,0,24-10.8,24-24V40C496,26.8,485.2,16,472,16z M192,208h16c17.6,0,32-14.4,32-32s-14.4-32-32-32h-16V64h49.5
	c3.3,9.3,12.1,16,22.5,16h112c10.4,0,19.2-6.7,22.5-16H448v384H192V208z M256,24c0-4.4,3.6-8,8-8h112c4.4,0,8,3.6,8,8v32
	c0,4.4-3.6,8-8,8H264c-4.4,0-8-3.6-8-8V24z M160,40c0-4.4,3.6-8,8-8h72v16h-64v96h-16V40z M118.5,336c-7.9,0-15.6-2.3-22.2-6.7
	L58.4,304H16V192h34.1l46.8-26.7c6-3.4,12.9-5.3,19.9-5.3H208c8.8,0,16,7.2,16,16s-7.2,16-16,16h-96v8c0,22.1-17.9,40-40,40v16
	c28.2,0,51.5-20.9,55.4-48H144v128H118.5z M480,472c0,4.4-3.6,8-8,8H168c-4.4,0-8-3.6-8-8V208h16v256h288V48h-64V32h72
	c4.4,0,8,3.6,8,8V472z"/>
<path class="st0" d="M272,32h16v16h-16V32z"/>
<path class="st0" d="M352,32h16v16h-16V32z"/>
<path class="st0" d="M379,369.7l-27-7.7l0-4.1c14.5-10.1,24-26.9,24-45.9v-16c0-30.9-25.1-56-56-56s-56,25.1-56,56v16
	c0,19,9.5,35.8,24,45.9v4.1l-27,7.7c-17.1,4.9-29,20.7-29,38.5V432h176v-23.9C408,390.4,396.1,374.6,379,369.7z M280,312v-16
	c0-22.1,17.9-40,40-40s40,17.9,40,40v16c0,22.1-17.9,40-40,40S280,334.1,280,312z M335.7,365.7l-15.7,21l-15.7-21
	c5,1.5,10.3,2.3,15.7,2.3S330.7,367.2,335.7,365.7z M392,416H248v-7.9c0-10.7,7.2-20.2,17.4-23.1l27.5-7.9l27.1,36.1l27.1-36.1
	l27.5,7.9c10.2,2.9,17.4,12.4,17.4,23.1V416z"/>
<path class="st0" d="M208,96h16v16h-16V96z"/>
<path class="st0" d="M240,96h192v16H240V96z"/>
<path class="st0" d="M256,128h176v16H256V128z"/>
<path class="st0" d="M256,160h176v16H256V160z"/>
<path class="st0" d="M416,192h16v16h-16V192z"/>
<path class="st0" d="M256,192h144v16H256V192z"/>
</svg>
