<?xml version="1.0" encoding="utf-8"?>
<!-- Generator: Adobe Illustrator 23.0.4, SVG Export Plug-In . SVG Version: 6.00 Build 0)  -->
<svg version="1.1" id="Layer_1" xmlns="http://www.w3.org/2000/svg" xmlns:xlink="http://www.w3.org/1999/xlink" x="0px" y="0px"
	 viewBox="0 0 397 397" style="enable-background:new 0 0 397 397;" xml:space="preserve">
<style type="text/css">
	.st0{fill:#0058D8;}
</style>
<path class="st0" d="M59.5,164.2c1.1,0.6,2.3,0.9,3.4,0.9c2.3,0,4.6-1.2,5.9-3.4c3.7-6.3,8-12.4,12.8-17.9c2.5-2.8,2.1-7.2-0.7-9.6
	c-2.8-2.4-7.1-2.1-9.6,0.7c-5.3,6.2-10.1,12.9-14.2,19.9C55.2,158.1,56.3,162.3,59.5,164.2z"/>
<path class="st0" d="M121.8,279c1.7,0,3.5-0.7,4.8-2l50.3-50.3c1.3-1.3,2-3,2-4.8V150c0-3.8-3-6.8-6.8-6.8c-3.8,0-6.8,3-6.8,6.8
	v69.1L117,267.4c-2.7,2.7-2.7,7,0,9.6C118.3,278.3,120.1,279,121.8,279z"/>
<path class="st0" d="M397,93.4c0-49.4-40.2-89.6-89.6-89.6c-36.9,0-68.6,22.4-82.3,54.4c-17.1-5.5-34.9-8.4-53-8.4
	C77.2,49.8,0,127,0,221.9S77.2,394,172.1,394c94.9,0,172.1-77.2,172.1-172.1c0-15.1-2.1-30.1-5.9-44.6
	C372.5,164.7,397,131.9,397,93.4z M330.6,221.9c0,87.4-71.1,158.5-158.5,158.5c-87.4,0-158.5-71.1-158.5-158.5
	c0-87.4,71.1-158.5,158.5-158.5c16.6,0,33,2.7,48.7,7.7c-1.8,7.1-2.9,14.6-2.9,22.3c0,1.2,0.1,2.4,0.2,3.6c-9.8-3.6-20-6-30.5-7.3
	c-29.7-3.5-58.9,2.9-84.4,18.3c-3.2,1.9-4.2,6.1-2.3,9.4c1.3,2.1,3.5,3.3,5.8,3.3c1.2,0,2.4-0.3,3.5-1c16.9-10.3,35.6-16,55-17.1
	v17.1c0,3.8,3,6.8,6.8,6.8c3.8,0,6.8-3,6.8-6.8v-17c2.4,0.1,4.7,0.3,7.1,0.5c11.8,1.4,23.2,4.5,34,9.2c7.1,32.6,32,58.5,63.9,67.2
	c4.3,11.3,6.8,23.3,7.5,35.4h-17.1c-3.8,0-6.8,3-6.8,6.8c0,3.8,3,6.8,6.8,6.8h17.1c-0.1,2.4-0.3,4.7-0.6,7.1
	c-2.9,24.6-13.1,47.1-29.2,65.2l-12.1-12c-2.7-2.6-7-2.6-9.6,0c-2.6,2.7-2.6,7,0,9.6l12.1,12c-1.9,1.7-3.7,3.4-5.7,5
	c-19.6,15.4-42.9,24.1-67.3,25.5v-17c0-3.8-3-6.8-6.8-6.8c-3.8,0-6.8,3-6.8,6.8v17c-2.4-0.1-4.7-0.2-7.1-0.5
	c-26.5-3.1-50-14.8-68-31.9l12.3-11.6c2.7-2.6,2.9-6.9,0.3-9.6c-2.6-2.7-6.9-2.9-9.6-0.3l-12.3,11.6c-16.3-19.3-26.4-43.7-27.9-70
	h17c3.8,0,6.8-3,6.8-6.8c0-3.8-3-6.8-6.8-6.8H53c0.1-2.4,0.2-4.7,0.5-7.1c0.4-3.7-2.2-7.1-6-7.6c-3.8-0.4-7.1,2.2-7.6,6
	c-4.1,35.3,5.7,70.1,27.8,98c22,27.9,53.6,45.5,88.9,49.7c5.3,0.6,10.5,0.9,15.7,0.9c29.8,0,58.5-9.9,82.3-28.7
	c27.9-22,45.5-53.6,49.7-88.9c2.2-18.5,0.4-37.2-5.1-54.8c2.7,0.2,5.4,0.4,8.2,0.4c6.1,0,12-0.6,17.8-1.8
	C328.7,194.4,330.6,208.1,330.6,221.9z M307.4,169.3c-41.9,0-75.9-34.1-75.9-75.9c0-41.9,34.1-75.9,75.9-75.9
	c41.9,0,75.9,34.1,75.9,75.9C383.4,135.2,349.3,169.3,307.4,169.3z"/>
<path class="st0" d="M307.4,36.7c-31.2,0-56.6,25.4-56.6,56.6s25.4,56.6,56.6,56.6s56.6-25.4,56.6-56.6S338.7,36.7,307.4,36.7z
	 M349.7,85.6H334c-1.1-13.5-5-24.9-10.7-32.2C336.9,58.8,347,70.9,349.7,85.6z M307.4,128.7c-4.8,0-11.7-11.5-13-29.4h26
	C319.1,117.1,312.2,128.7,307.4,128.7z M294.6,85.6c1.6-16.8,8.3-27.6,12.9-27.6c4.6,0,11.3,10.7,12.9,27.6H294.6z M291.6,53.4
	c-5.7,7.3-9.6,18.7-10.7,32.2h-15.7C267.8,70.9,278,58.8,291.6,53.4z M264.9,99.3h15.9c0.9,14.3,4.9,26.4,10.8,34
	C277.5,127.7,267,114.8,264.9,99.3z M323.3,133.3c6-7.7,10-19.7,10.8-34H350C347.9,114.8,337.4,127.7,323.3,133.3z"/>
</svg>
